HIERARCHY
ROOT Hips
{
	OFFSET 0.000000 0.000000 0.000000
	CHANNELS 6 Xposition Yposition Zposition Zrotation Yrotation Xrotation 
	JOINT LHipJoint
	{
		OFFSET 0.000000 0.000000 0.000000
		CHANNELS 3 Zrotation Yrotation Xrotation
		JOINT LeftUpLeg
		{
			OFFSET 1.363060 -1.794630 0.839290
			CHANNELS 3 Zrotation Yrotation Xrotation
			JOINT LeftLeg
			{
				OFFSET 2.448110 -6.726130 0.000000
				CHANNELS 3 Zrotation Yrotation Xrotation
				JOINT LeftFoot
				{
					OFFSET 2.562200 -7.039590 0.000000
					CHANNELS 3 Zrotation Yrotation Xrotation
					JOINT LeftToeBase
					{
						OFFSET 0.157640 -0.433110 2.322550
						CHANNELS 3 Zrotation Yrotation Xrotation
						End Site
						{
							OFFSET 0.000000 0.000000 0.000000
						}
					}
				}
			}
		}
	}
	JOINT RHipJoint
	{
		OFFSET 0.000000 0.000000 0.000000
		CHANNELS 3 Zrotation Yrotation Xrotation
		JOINT RightUpLeg
		{
			OFFSET -1.305520 -1.794630 0.839290
			CHANNELS 3 Zrotation Yrotation Xrotation
			JOINT RightLeg
			{
				OFFSET -2.542530 -6.985550 0.000000
				CHANNELS 3 Zrotation Yrotation Xrotation
				JOINT RightFoot
				{
					OFFSET -2.568260 -7.056230 0.000000
					CHANNELS 3 Zrotation Yrotation Xrotation
					JOINT RightToeBase
					{
						OFFSET -0.164730 -0.452590 2.363150
						CHANNELS 3 Zrotation Yrotation Xrotation
						End Site
						{
							OFFSET 0.000000 0.000000 0.000000
						}
					}
				}
			}
		}
	}
}
MOTION
Frames: 14
Frame Time: 0.008333
4.394411 17.381143 1.284320 -176.426598 -58.550876 -161.095579 -11.129073 1.799601 -5.333325 -15.134881 32.150285 -22.005805 -3.705114 -1.082627 -5.959825 1.898176 14.168917 2.283002 2.689800 -0.000000 -38.287100 9.355439 0.686867 3.641393 -2.457111 12.240779 -25.785142 2.705537 1.377743 -4.490556 1.231510 5.229927 15.686851 1.213200 0.000000 -65.779500
4.388487 17.383925 1.288169 -176.669044 -58.365313 -160.798432 -11.124382 1.821971 -5.312184 -15.383723 32.128193 -22.033005 -3.712219 -1.115025 -6.086355 1.952505 14.322676 2.378521 2.709900 0.000000 -38.097700 9.354110 0.649268 3.740426 -2.698219 12.379673 -26.005831 2.673627 1.361943 -4.494139 1.231356 5.271353 15.783292 1.242600 -0.000000 -65.853700
4.384378 17.387387 1.291212 -176.951322 -58.226668 -160.521284 -11.119414 1.838884 -5.271116 -15.590452 32.042809 -22.111850 -3.717540 -1.128889 -5.961550 1.993656 14.519398 2.343391 2.731100 -0.000000 -37.888700 9.346898 0.602150 3.833029 -2.919318 12.467937 -26.166284 2.643454 1.345530 -4.498041 1.231722 5.320104 15.875470 1.274900 0.000000 -65.919800
4.382120 17.391026 1.294251 -177.255468 -58.129873 -160.266982 -11.115362 1.850505 -5.219790 -15.753012 31.896314 -22.205589 -3.717723 -1.128268 -5.675014 2.029317 14.751299 2.217677 2.751300 -0.000000 -37.663900 9.336228 0.556235 3.908047 -3.118873 12.509425 -26.269030 2.615107 1.328696 -4.496355 1.231769 5.368204 15.956786 1.306100 -0.000000 -65.982701
4.381664 17.394333 1.297922 -177.566650 -58.066418 -160.035718 -11.115657 1.859108 -5.166509 -15.874470 31.700647 -22.266525 -3.709993 -1.120793 -5.350685 2.070840 15.005466 2.062850 2.767201 0.000000 -37.430500 9.323920 0.519709 3.958310 -3.298134 12.511317 -26.320729 2.588780 1.311973 -4.483834 1.231140 5.410360 16.020519 1.333300 -0.000001 -66.049500
4.382738 17.396833 1.302501 -177.876544 -58.026981 -159.824640 -11.119691 1.866328 -5.117229 -15.963657 31.473308 -22.299360 -3.697059 -1.107058 -5.008148 2.115240 15.261168 1.882916 2.774900 -0.000000 -37.197499 9.310752 0.496526 3.982559 -3.460324 12.481603 -26.331470 2.564708 1.296069 -4.456309 1.229970 5.444425 16.061010 1.354700 0.000001 -66.125300
4.384853 17.398273 1.308040 -178.177635 -58.004333 -159.629946 -11.126523 1.873533 -5.075818 -16.032333 31.235050 -22.314922 -3.682452 -1.088283 -4.663231 2.159033 15.496923 1.683582 2.771200 -0.000000 -36.973900 9.297040 0.487284 3.984589 -3.610583 12.432819 -26.313158 2.542696 1.281882 -4.416866 1.227977 5.464870 16.078048 1.367800 -0.000000 -66.214600
4.387398 17.398490 1.314107 -178.472593 -57.995406 -159.440529 -11.134560 1.882950 -5.042420 -16.097922 31.006176 -22.325719 -3.670442 -1.066841 -4.327863 2.198238 15.692291 1.473939 2.754600 0.000000 -36.768500 9.284420 0.489501 3.970137 -3.751095 12.359510 -26.286665 2.522756 1.268795 -4.354970 1.226862 5.488383 16.063152 1.379001 -0.000000 -66.314400
4.389955 17.397505 1.320593 -178.752707 -57.993504 -159.256440 -11.142504 1.893998 -5.020518 -16.167204 30.806190 -22.342444 -3.663770 -1.043718 -4.009443 2.230272 15.833566 1.258471 2.724000 0.000000 -36.587300 9.272632 0.501047 3.946140 -3.888659 12.283489 -26.256969 2.503884 1.257716 -4.286793 1.225221 5.501330 16.026900 1.383600 0.000000 -66.428600
4.392209 17.395375 1.327210 -179.019123 -57.993790 -159.073608 -11.149789 1.907211 -5.010224 -16.248533 30.649373 -22.371622 -3.664552 -1.020347 -3.711195 2.253349 15.914332 1.042793 2.680100 0.000000 -36.434500 9.261976 0.518498 3.918127 -4.024696 12.206137 -26.234626 2.486017 1.248164 -4.211293 1.224002 5.514084 15.969826 1.386000 0.000000 -66.555100
4.394020 17.392229 1.333810 -179.274487 -57.990713 -158.889771 -11.156477 1.922618 -5.010838 -16.346132 30.543723 -22.416822 -3.673628 -0.997706 -3.432619 2.267045 15.935634 0.829362 2.624600 0.000000 -36.310400 9.252203 0.538689 3.890317 -4.159886 12.128299 -26.226187 2.469237 1.239623 -4.127788 1.224127 5.536497 15.894188 1.390600 0.000001 -66.692600
4.395395 17.388295 1.340239 -179.522259 -57.980202 -158.704197 -11.162849 1.939933 -5.020481 -16.461157 30.489457 -22.479385 -3.690521 -0.976396 -3.170431 2.272356 15.906626 0.620303 2.560300 0.000000 -36.212600 9.242695 0.558539 3.866533 -4.295065 12.052883 -26.234032 2.453511 1.231865 -4.039974 1.225952 5.572494 15.805853 1.399501 -0.000000 -66.838500
4.396184 17.383875 1.346390 -179.761673 -57.959895 -158.518027 -11.169295 1.958523 -5.035882 -16.590872 30.478415 -22.559283 -3.713595 -0.956753 -2.919986 2.271427 15.842066 0.416290 2.490900 0.000000 -36.135100 9.232633 0.575480 3.849812 -4.430433 11.984175 -26.256957 2.438905 1.225071 -3.954854 1.229367 5.620827 15.712820 1.412900 0.000000 -66.989400
4.396227 17.379223 1.351887 -179.999048 -57.929758 -158.323420 -11.175129 1.978476 -5.052475 -16.738016 30.496826 -22.657958 -3.741212 -0.939360 -2.676768 2.266932 15.760183 0.219814 2.420900 0.000000 -36.071800 9.222648 0.588132 3.841309 -4.565379 11.913054 -26.302956 2.425517 1.218414 -3.865667 1.235451 5.693095 15.614071 1.435300 0.000001 -67.140900
